# xmcd
# Track frame offsets:
# 150
# 14496
# 33783
# 55544
# 69359
# 83095
# 100810
# 119160
# 137428
#
# Disc length: 2013 seconds
# Revision: 0
# Processed by: cddbd v1.5.1PL0 Copyright (c) Steve Scherf et al.
# Submitted via: VisiTrax 2.9.10.228 - For more info visit www.synapsa.com
#
DISCID=6b07db09
DTITLE=Various Artist - Hits Monthly Nashville  PHN0405
DYEAR=1900
DGENRE=Karaoke
TTITLE0=Currington, Billy - I Got A Feelin'
TTITLE1=Roberts, Julie - Break Down Here
TTITLE2=Wynonna and Naomi Judd - Flies On The Butter
TTITLE3=Montgomery Gentry - If You Ever Stop Loving Me
TTITLE4=Brooks and Dunn - That's What She Gets For Loving Me
TTITLE5=Griggs, Andy - She Thinks She Needs Me
TTITLE6=Lonestar - Let's Be Us Again
TTITLE7=Big and Rich - Wild West Show
TTITLE8=Womack, Lee Ann - Wrong Girl, The
EXTD=
EXTT0=
EXTT1=
EXTT2=
EXTT3=
EXTT4=
EXTT5=
EXTT6=
EXTT7=
EXTT8=
PLAYORDER=
